<svg width="198" height="89" viewBox="0 0 198 89" fill="none" xmlns="http://www.w3.org/2000/svg">
<g clip-path="url(#clip0_479_178)">
<path d="M93.2904 10.2866H72.2969C72.2969 4.60999 77.0011 0 82.7937 0C88.5863 0 93.2904 4.60999 93.2904 10.2866Z" fill="#2C302E"/>
<path d="M7.60048 15.3847V29.8475H7.76652C8.50443 28.2385 11.9173 25.4002 17.1933 25.4002C24.0559 25.4002 31.3797 30.4079 31.3797 40.4233C31.3797 50.4388 24.0559 55.4465 17.1933 55.4465C11.9173 55.4465 8.50443 52.6082 7.76652 50.9992H7.60048V54.8861H0V15.3847H7.60048ZM15.6622 48.7575C19.9236 48.7575 23.8899 45.8107 23.8899 40.4233C23.8899 35.036 19.9236 32.0892 15.6622 32.0892C11.4007 32.0892 7.43446 34.9817 7.43446 40.4233C7.43446 45.8649 11.4007 48.7575 15.6622 48.7575Z" fill="#2C302E"/>
<path d="M35.752 25.9425H43.3524V33.4451C44.3671 28.9978 47.2634 25.3821 52.5948 25.3821C53.2773 25.3821 53.9046 25.4363 54.5871 25.599V32.7219C53.9046 32.6134 53.3327 32.5592 52.6501 32.5592C46.9129 32.5592 43.3524 36.4461 43.3524 42.2312V54.8499H35.752V25.9244V25.9425Z" fill="#2C302E"/>
<path d="M66.5043 25.9425H58.9038V54.868H66.5043V25.9425Z" fill="#2C302E"/>
<path d="M72.2969 15.3847H79.8974V54.868H72.2969V15.3847Z" fill="#2C302E"/>
<path d="M85.6899 15.3847H93.2904V54.868H85.6899V15.3847Z" fill="#2C302E"/>
<path d="M106.683 25.9425H99.083V54.868H106.683V25.9425Z" fill="#2C302E"/>
<path d="M111.056 40.4052C111.056 30.3898 118.379 25.3821 125.242 25.3821C130.518 25.3821 133.931 28.2204 134.669 29.8294H134.835V25.9425H142.435V54.868H134.835V50.9811H134.669C133.931 52.5901 130.518 55.4284 125.242 55.4284C118.379 55.4284 111.056 50.4207 111.056 40.4052ZM126.773 48.7394C131.035 48.7394 135.001 45.8468 135.001 40.4052C135.001 34.9636 131.035 32.0711 126.773 32.0711C122.512 32.0711 118.545 35.0179 118.545 40.4052C118.545 45.7926 122.512 48.7394 126.773 48.7394Z" fill="#2C302E"/>
<path d="M148.228 25.9425H155.829V29.8836C157.47 27.3345 160.422 25.3821 164.849 25.3821C170.919 25.3821 176.029 29.052 176.029 37.8381V54.8499H168.428V39.0494C168.428 34.819 166.104 32.0349 162.138 32.0349C158.171 32.0349 155.847 34.819 155.847 39.0494V54.8499H148.246V25.9244L148.228 25.9425Z" fill="#2C302E"/>
<path d="M183.758 46.8592V31.8903H179.552V25.9425H183.758V18.5484H191.414V25.9425H197.483V31.8903H191.414V45.6299C191.414 47.1304 192.263 48.5767 194.753 48.5767C195.436 48.5767 196.45 48.4682 197.539 48.1247V53.8556C196.395 54.8499 194.255 55.1934 192.373 55.1934C187.374 55.1934 183.74 52.807 183.74 46.8592H183.758Z" fill="#2C302E"/>
<path d="M98.5112 18.9462C98.5112 16.3971 100.504 14.6616 102.883 14.6616C105.208 14.6616 107.255 16.379 107.255 18.9462C107.255 21.5133 105.208 23.2308 102.883 23.2308C100.559 23.2308 98.5112 21.5133 98.5112 18.9462Z" fill="#2C302E"/>
<path d="M58.332 18.9462C58.332 16.3971 60.3244 14.6616 62.7042 14.6616C65.0286 14.6616 67.0763 16.379 67.0763 18.9462C67.0763 21.5133 65.0286 23.2308 62.7042 23.2308C60.3797 23.2308 58.332 21.5133 58.332 18.9462Z" fill="#2C302E"/>
<path d="M138.764 88.1684V85.2939C139.41 85.7097 140.812 86.0532 142.195 86.0532C144.889 86.0532 146.623 84.8058 146.623 82.7268V81.6782H146.457C146.106 82.4375 144.538 83.7934 142.066 83.7934C138.82 83.7934 135.314 81.4071 135.314 76.6524C135.314 71.8978 138.82 69.5115 142.066 69.5115C144.557 69.5115 146.106 70.8674 146.457 71.6266H146.623V69.7826H150.239V82.5098C150.239 87.7707 146.033 89.0362 142.841 89.0362C141.218 89.0362 139.594 88.7107 138.764 88.1865V88.1684ZM142.786 80.6116C144.834 80.6116 146.697 79.2377 146.697 76.6524C146.697 74.0672 144.834 72.6933 142.786 72.6933C140.738 72.6933 138.875 74.1034 138.875 76.6524C138.875 79.2015 140.757 80.6116 142.786 80.6116Z" fill="#2C302E"/>
<path d="M152.987 64.7388H156.603V83.5222H152.987V64.7388Z" fill="#2C302E"/>
<path d="M158.669 76.6344C158.669 71.8798 162.156 69.4934 165.421 69.4934C167.93 69.4934 169.554 70.8493 169.904 71.6086H169.978V69.7646H173.594V83.5223H169.978V81.6783H169.904C169.554 82.4376 167.93 83.7934 165.421 83.7934C162.156 83.7934 158.669 81.4071 158.669 76.6525V76.6344ZM166.141 80.5936C168.17 80.5936 170.052 79.2196 170.052 76.6344C170.052 74.0492 168.17 72.6752 166.141 72.6752C164.112 72.6752 162.23 74.0853 162.23 76.6344C162.23 79.1834 164.112 80.5936 166.141 80.5936Z" fill="#2C302E"/>
<path d="M175.531 79.9066L178.427 79.1473C178.704 80.0512 179.368 80.9732 180.751 80.9732C181.674 80.9732 182.559 80.5212 182.559 79.545C182.559 78.8761 182.135 78.4061 181.028 78.0083L179.294 77.3756C176.97 76.5621 176.01 75.0977 176.01 73.4345C176.01 70.9758 178.224 69.4934 180.862 69.4934C183.5 69.4934 185.253 70.9035 185.714 73.0187L182.873 73.7238C182.504 72.621 181.766 72.2775 181.01 72.2775C180.069 72.2775 179.497 72.8018 179.497 73.4707C179.497 74.0492 179.848 74.5554 180.954 74.9169L182.522 75.4954C184.257 76.1101 186.138 77.1044 186.138 79.545C186.138 82.2929 183.74 83.7754 180.788 83.7754C178.003 83.7754 175.955 82.4556 175.531 79.9066Z" fill="#2C302E"/>
<path d="M187.393 79.9066L190.289 79.1473C190.566 80.0512 191.23 80.9732 192.613 80.9732C193.536 80.9732 194.421 80.5212 194.421 79.545C194.421 78.8761 193.997 78.4061 192.89 78.0083L191.156 77.3756C188.832 76.5621 187.872 75.0977 187.872 73.4345C187.872 70.9758 190.086 69.4934 192.724 69.4934C195.362 69.4934 197.115 70.9035 197.576 73.0187L194.735 73.7238C194.366 72.621 193.628 72.2775 192.872 72.2775C191.931 72.2775 191.359 72.8018 191.359 73.4707C191.359 74.0492 191.709 74.5554 192.816 74.9169L194.384 75.4954C196.118 76.1101 198 77.1044 198 79.545C198 82.2929 195.602 83.7754 192.65 83.7754C189.865 83.7754 187.817 82.4556 187.393 79.9066Z" fill="#2C302E"/>
</g>
<defs>
<clipPath id="clip0_479_178">
<rect width="198" height="89" fill="white"/>
</clipPath>
</defs>
</svg>
