<svg width="50" height="50" viewBox="0 0 50 50" fill="none" xmlns="http://www.w3.org/2000/svg">
    <path fill-rule="evenodd" clip-rule="evenodd" d="M23.75 17.338a1 1 0 0 1 1.412-.088l8.5 7.5a1 1 0 0 1 0 1.5l-8.5 7.5a1 1 0 1 1-1.324-1.5l6.517-5.75H15a1 1 0 1 1 0-2h15.355l-6.517-5.75a1 1 0 0 1-.088-1.412z" fill="#000"/>
    <path fill-rule="evenodd" clip-rule="evenodd" d="M25 48c12.703 0 23-10.297 23-23S37.703 2 25 2 2 12.297 2 25s10.297 23 23 23zm0 2c13.807 0 25-11.193 25-25S38.807 0 25 0 0 11.193 0 25s11.193 25 25 25z" fill="#000"/>
</svg>
