<svg width="30" height="36" viewBox="0 0 30 36" fill="none" xmlns="http://www.w3.org/2000/svg">
<path d="M20.8336 6.8175H8.32227C8.32227 3.1938 11.1258 0.250977 14.5779 0.250977C18.0301 0.250977 20.8336 3.1938 20.8336 6.8175Z" fill="white"/>
<path d="M4.8704 16.8115H0.34082V35.2763H4.8704V16.8115Z" fill="white"/>
<path d="M8.32227 10.0723H12.8518V35.2766H8.32227V10.0723Z" fill="white"/>
<path d="M16.3037 10.0723H20.8333V35.2766H16.3037V10.0723Z" fill="white"/>
<path d="M28.8157 16.8115H24.2861V35.2763H28.8157V16.8115Z" fill="white"/>
<path d="M23.9453 12.3454C23.9453 10.7182 25.1327 9.61035 26.5509 9.61035C27.9362 9.61035 29.1565 10.7067 29.1565 12.3454C29.1565 13.9842 27.9362 15.0805 26.5509 15.0805C25.1657 15.0805 23.9453 13.9842 23.9453 12.3454Z" fill="white"/>
<path d="M0 12.3454C0 10.7182 1.18737 9.61035 2.60561 9.61035C3.99087 9.61035 5.21122 10.7067 5.21122 12.3454C5.21122 13.9842 3.99087 15.0805 2.60561 15.0805C1.22035 15.0805 0 13.9842 0 12.3454Z" fill="white"/>
</svg>
