<svg width="16" height="17" viewBox="0 0 16 17" fill="none" xmlns="http://www.w3.org/2000/svg">
<g clip-path="url(#clip0_987_32)">
<path d="M8.00424 4.846C5.74453 4.83448 3.88943 6.68542 3.87798 8.96261C3.86653 11.236 5.70636 13.1023 7.96989 13.1138C10.2296 13.1253 12.0847 11.2744 12.0961 8.99717C12.1076 6.72382 10.2678 4.85752 8.00424 4.846ZM7.97752 11.6814C6.48886 11.6737 5.29793 10.4679 5.30557 8.97413C5.3132 7.47649 6.50795 6.27837 7.99279 6.28221C9.48526 6.28221 10.6876 7.49953 10.6724 8.99717C10.6609 10.4948 9.45854 11.6929 7.97752 11.6814Z" fill="white"/>
<path d="M12.2759 5.72538C11.7072 5.72538 11.2339 5.2684 11.2301 4.69623C11.2224 4.12405 11.7034 3.63635 12.2721 3.63635C12.8332 3.63635 13.3104 4.11253 13.3142 4.68087C13.3142 5.2492 12.8485 5.72154 12.2798 5.72538H12.2759Z" fill="white"/>
<path d="M15.8865 4.35449C15.6498 3.38294 15.1536 2.57651 14.3864 1.94289C13.6153 1.30159 12.7336 0.944458 11.7182 0.944458C9.20277 0.948298 6.68732 0.944458 4.17187 0.944458C3.93521 0.944458 3.69473 0.955978 3.46189 1.01358C2.51144 1.23247 1.71367 1.7048 1.0724 2.44979C0.408234 3.21781 0.0112587 4.0972 0.00362459 5.12251C-0.00782663 7.69539 0.00362459 10.2683 0.00362459 12.8412C0.00362459 13.0332 0.00744166 13.229 0.0494295 13.4172C0.381515 14.9571 1.26708 16.0515 2.69466 16.6966C3.08782 16.8733 3.50388 16.977 3.93903 16.9962H11.9701C12.1266 16.9616 12.2908 16.9847 12.4435 16.9501C13.9512 16.6045 15.02 15.7174 15.6498 14.3004C15.8254 13.9049 15.9246 13.4863 15.9552 13.0524V4.93819C15.9132 4.74618 15.9285 4.54649 15.8826 4.35449H15.8865ZM11.4587 15.5715H7.98894V15.5638C6.74839 15.5638 5.50784 15.5753 4.2673 15.5638C3.12217 15.5484 2.03431 14.742 1.63733 13.6629C1.49992 13.2866 1.43884 12.8988 1.43884 12.5032C1.43884 10.1569 1.4503 7.81444 1.43884 5.47196C1.42739 3.99352 2.40456 2.86452 3.56877 2.52275C3.87414 2.43059 4.18714 2.39986 4.50395 2.39986C6.82855 2.39986 9.15315 2.41139 11.4777 2.39986C12.9473 2.38834 14.0695 3.3599 14.4169 4.53881C14.5085 4.84602 14.5429 5.16091 14.5429 5.47964C14.5429 7.82596 14.5314 10.1684 14.5429 12.5109C14.5543 13.9855 13.5848 15.1145 12.4129 15.4601C12.0999 15.5523 11.7831 15.583 11.4625 15.583L11.4587 15.5715Z" fill="white"/>
<path d="M8.00424 4.846C5.74453 4.83448 3.88943 6.68542 3.87798 8.96261C3.86653 11.236 5.70636 13.1023 7.96989 13.1138C10.2296 13.1253 12.0847 11.2744 12.0961 8.99717C12.1076 6.72382 10.2678 4.85752 8.00424 4.846ZM7.97752 11.6814C6.48886 11.6737 5.29793 10.4679 5.30557 8.97413C5.3132 7.47649 6.50795 6.27837 7.99279 6.28221C9.48526 6.28221 10.6876 7.49953 10.6724 8.99717C10.6609 10.4948 9.45854 11.6929 7.97752 11.6814Z" fill="white"/>
<path d="M13.3104 4.68087C13.3104 5.2492 12.8447 5.72154 12.2759 5.72538C11.7072 5.72538 11.2339 5.2684 11.2301 4.69623C11.2224 4.12405 11.7034 3.63635 12.2721 3.63635C12.8332 3.63635 13.3104 4.11253 13.3142 4.68087H13.3104Z" fill="white"/>
<path d="M8.00424 4.846C5.74453 4.83448 3.88943 6.68542 3.87798 8.96261C3.86653 11.236 5.70636 13.1023 7.96989 13.1138C10.2296 13.1253 12.0847 11.2744 12.0961 8.99717C12.1076 6.72382 10.2678 4.85752 8.00424 4.846ZM7.97752 11.6814C6.48886 11.6737 5.29793 10.4679 5.30557 8.97413C5.3132 7.47649 6.50795 6.27837 7.99279 6.28221C9.48526 6.28221 10.6876 7.49953 10.6724 8.99717C10.6609 10.4948 9.45854 11.6929 7.97752 11.6814Z" fill="white"/>
<path d="M13.3104 4.68087C13.3104 5.2492 12.8447 5.72154 12.2759 5.72538C11.7072 5.72538 11.2339 5.2684 11.2301 4.69623C11.2224 4.12405 11.7034 3.63635 12.2721 3.63635C12.8332 3.63635 13.3104 4.11253 13.3142 4.68087H13.3104Z" fill="white"/>
</g>
<defs>
<clipPath id="clip0_987_32">
<rect width="15.9592" height="16.0556" fill="white" transform="translate(0 0.944458)"/>
</clipPath>
</defs>
</svg>
