<svg width="21" height="21" viewBox="0 0 21 21" fill="none" xmlns="http://www.w3.org/2000/svg">
<g clip-path="url(#clip0_791_1660)">
<path d="M11.591 8.93451C12.7086 7.24905 14.3169 6.97087 16.0233 6.99814C17.1845 7.01451 18.3185 7.1836 19.278 7.92542C20.3356 8.73814 20.69 9.90542 20.859 11.1491C21.0825 12.8018 20.9571 14.4654 20.9789 16.1291C20.9953 17.6236 20.9734 19.1236 20.9898 20.6236C20.9898 20.9291 20.9244 21.0054 20.6136 21C19.4797 20.9781 18.3457 20.9727 17.2118 21C16.8465 21.0109 16.792 20.8854 16.792 20.5581C16.8083 18.4691 16.7974 16.38 16.7974 14.2909C16.7974 13.6309 16.7593 12.9763 16.6175 12.3327C16.3504 11.1109 15.6253 10.5 14.4259 10.4727C13.1121 10.4454 12.3107 11.0181 11.9727 12.2236C11.8255 12.7527 11.7764 13.2872 11.7764 13.8327C11.7764 16.0691 11.7655 18.3109 11.7873 20.5472C11.7873 20.9181 11.7001 21.0109 11.3294 21C10.2445 20.9727 9.15958 20.9781 8.07469 21C7.75849 21.0054 7.65491 20.94 7.66036 20.6018C7.67126 16.1945 7.67126 11.7818 7.66036 7.37451C7.66036 7.07451 7.72578 6.97633 8.04198 6.98178C9.11051 7.0036 10.1791 6.99814 11.2476 6.98178C11.542 6.98178 11.6019 7.07996 11.591 7.34724C11.5692 7.83814 11.5856 8.32905 11.5856 8.93996L11.591 8.93451Z" fill="white"/>
<path d="M4.89059 14.0018C4.89059 16.1891 4.88514 18.3763 4.9015 20.5636C4.9015 20.9018 4.83608 21.0054 4.48172 20.9945C3.11879 20.9673 1.75041 20.9727 0.387479 20.9945C0.0876351 20.9945 0.00585938 20.9291 0.00585938 20.6182C0.0167628 16.2109 0.0167628 11.7982 0.00585938 7.39089C0.00585938 7.07998 0.0603765 6.96543 0.403834 6.97089C1.76676 6.99271 3.13514 6.99271 4.49807 6.97089C4.83608 6.97089 4.89605 7.06907 4.89605 7.38543C4.87969 9.58907 4.89059 11.7927 4.89059 13.9963V14.0018Z" fill="white"/>
<path d="M4.88563 2.45457C4.88563 3.83457 3.83345 4.88184 2.44872 4.88184C1.05308 4.88184 0.000899293 3.81275 0.0118027 2.40548C0.0227061 1.06366 1.08034 0.00547554 2.42146 2.09912e-05C3.82255 -0.00543355 4.88563 1.05275 4.88018 2.45457H4.88563Z" fill="white"/>
</g>
<defs>
<clipPath id="clip0_791_1660">
<rect width="21" height="21" fill="white"/>
</clipPath>
</defs>
</svg>
