<svg width="18" height="16" viewBox="0 0 18 16" fill="none" xmlns="http://www.w3.org/2000/svg">
<path d="M8.94625 5.36984C4.92434 5.23785 1.98065 2.44581 1.38506 1.61327C0.597794 3.27834 0.669675 4.91634 2.52146 6.41897C1.96353 6.39528 1.33029 6.22945 0.909278 5.99594C0.823706 8.60184 3.21974 9.43438 3.77767 9.54268C3.05201 9.8608 2.15179 9.63744 2.15179 9.63744C3.00752 11.8812 4.72923 12.0335 5.54731 12.1384C3.97962 13.5226 1.34399 13.8509 0.163086 13.6648C5.01334 16.3654 15.5216 16.2876 16.2062 4.51023C16.2062 4.51023 17.435 3.5457 17.9998 2.62856C17.0893 3.04144 16.0248 3.20051 15.9118 3.20051C17.0551 2.42889 17.3563 1.6065 17.4932 1.20039C16.326 1.91786 15.1759 2.07354 15.1759 2.07354C13.4987 0.4863 11.5921 0.807808 10.3702 1.6065C9.1482 2.4052 8.71349 4.06689 8.87437 4.97388C8.90175 5.12617 8.94625 5.37322 8.94625 5.37322V5.36984Z" fill="white"/>
</svg>
