<?xml version="1.0" encoding="UTF-8"?><svg id="Layer_1" xmlns="http://www.w3.org/2000/svg" viewBox="0 0 628.35 720"><defs><style>.cls-1{fill:#fcda00;}</style></defs><path class="cls-1" d="m446.06,138.57H181.14c0-73.15,59.3-132.45,132.45-132.45s132.47,59.3,132.47,132.45Z"/><rect class="cls-1" x="12.16" y="340.15" width="95.94" height="372.33"/><path class="cls-1" d="m181.14,204.12h95.94s0,508.36,0,508.36h-95.94s0-508.36,0-508.36Z"/><path class="cls-1" d="m350.13,204.12h95.94s0,508.36,0,508.36h-95.94s0-508.36,0-508.36Z"/><rect class="cls-1" x="519.11" y="340.15" width="95.94" height="372.33"/><path class="cls-1" d="m511.96,250.06c0-32.93,25.06-55.12,55.12-55.12,29.37,0,55.12,22.19,55.12,55.12,0,32.93-25.76,55.12-55.12,55.12-30.07,0-55.12-22.19-55.12-55.12Z"/><path class="cls-1" d="m5,250.06c0-32.93,25.06-55.12,55.12-55.12,29.37,0,55.12,22.19,55.12,55.12,0,32.93-25.76,55.12-55.12,55.12-30.07,0-55.12-22.19-55.12-55.12Z"/></svg>