<svg width="118" height="118" viewBox="0 0 118 118" fill="none" xmlns="http://www.w3.org/2000/svg">
<path fill-rule="evenodd" clip-rule="evenodd" d="M87.1462 30.4928C88.7007 32.0672 88.7007 34.6198 87.1462 36.1942L36.4829 87.507C34.9285 89.0814 32.4082 89.0814 30.8537 87.507C29.2993 85.9326 29.2993 83.38 30.8537 81.8056L81.517 30.4928C83.0715 28.9184 85.5918 28.9184 87.1462 30.4928Z" fill="#231F20"/>
<path fill-rule="evenodd" clip-rule="evenodd" d="M29.6879 33.3435C29.6879 31.117 31.47 29.312 33.6683 29.312H84.3316C86.53 29.312 88.3121 31.117 88.3121 33.3435V84.6563C88.3121 86.8829 86.53 88.6878 84.3316 88.6878C82.1333 88.6878 80.3512 86.8829 80.3512 84.6563V37.375H33.6683C31.47 37.375 29.6879 35.57 29.6879 33.3435Z" fill="#231F20"/>
</svg>
