<svg width="72" height="72" viewBox="0 0 72 72" fill="none" xmlns="http://www.w3.org/2000/svg">
<path fill-rule="evenodd" clip-rule="evenodd" d="M51.1391 53.3143C60.7018 44.9531 61.6758 30.4229 53.3146 20.8602C44.9534 11.2975 30.4232 10.3235 20.8605 18.6847C11.2978 27.0459 10.3238 41.576 18.685 51.1387C27.0462 60.7014 41.5764 61.6754 51.1391 53.3143ZM52.4555 54.8199C62.8498 45.7316 63.9085 29.938 54.8202 19.5437C45.732 9.14948 29.9383 8.09077 19.5441 17.179C9.14983 26.2673 8.09112 42.061 17.1794 52.4552C26.2676 62.8494 42.0613 63.9081 52.4555 54.8199Z" fill="white"/>
<path fill-rule="evenodd" clip-rule="evenodd" d="M29.9949 31.0751C29.9954 30.5228 30.4435 30.0755 30.9958 30.076L42.3316 30.0867C42.6185 30.0869 42.8915 30.2104 43.0811 30.4257C43.2707 30.6411 43.3587 30.9275 43.3227 31.2121L41.9007 42.4583C41.8314 43.0063 41.3311 43.3943 40.7831 43.325C40.2352 43.2557 39.8472 42.7554 39.9165 42.2074L41.0068 33.5851L29.4833 43.7336C29.0688 44.0986 28.4369 44.0585 28.0719 43.6441C27.7069 43.2296 27.747 42.5977 28.1614 42.2327L39.6849 32.0842L30.9939 32.076C30.4416 32.0755 29.9943 31.6273 29.9949 31.0751Z" fill="white"/>
</svg>
