<svg width="27" height="24" viewBox="0 0 27 24" fill="none" xmlns="http://www.w3.org/2000/svg">
<path fill-rule="evenodd" clip-rule="evenodd" d="M0 3C0 2.44772 0.447715 2 1 2H26C26.5523 2 27 2.44772 27 3C27 3.55228 26.5523 4 26 4H1C0.447715 4 0 3.55228 0 3Z" fill="#231F20"/>
<path fill-rule="evenodd" clip-rule="evenodd" d="M0 12C0 11.4477 0.447715 11 1 11H26C26.5523 11 27 11.4477 27 12C27 12.5523 26.5523 13 26 13H1C0.447715 13 0 12.5523 0 12Z" fill="#231F20"/>
<path fill-rule="evenodd" clip-rule="evenodd" d="M0 21C0 20.4477 0.447715 20 1 20H26C26.5523 20 27 20.4477 27 21C27 21.5523 26.5523 22 26 22H1C0.447715 22 0 21.5523 0 21Z" fill="#231F20"/>
<path d="M22 3C22 4.65685 20.6569 6 19 6C17.3431 6 16 4.65685 16 3C16 1.34315 17.3431 0 19 0C20.6569 0 22 1.34315 22 3Z" fill="#231F20"/>
<path d="M11 12C11 13.6569 9.65685 15 8 15C6.34315 15 5 13.6569 5 12C5 10.3431 6.34315 9 8 9C9.65685 9 11 10.3431 11 12Z" fill="#231F20"/>
<path d="M19 21C19 22.6569 17.6569 24 16 24C14.3431 24 13 22.6569 13 21C13 19.3431 14.3431 18 16 18C17.6569 18 19 19.3431 19 21Z" fill="#231F20"/>
</svg>
