<svg width="63" height="63" viewBox="0 0 63 63" fill="none" xmlns="http://www.w3.org/2000/svg">
<path d="M63 31.5C63 48.897 48.897 63 31.5 63C14.103 63 0 48.897 0 31.5C0 14.103 14.103 0 31.5 0C48.897 0 63 14.103 63 31.5Z" fill="#231F20"/>
<path fill-rule="evenodd" clip-rule="evenodd" d="M45.6374 19.2294C46.063 19.5814 46.1226 20.2118 45.7706 20.6374L26.7479 43.6374C26.5545 43.8713 26.2652 44.0046 25.9618 43.9999C25.6583 43.9952 25.3733 43.8529 25.1873 43.6131L17.21 33.3324C16.8714 32.8961 16.9507 32.2679 17.387 31.9293C17.8233 31.5907 18.4515 31.67 18.7901 32.1063L26.0022 41.4009L44.2295 19.3627C44.5814 18.9371 45.2118 18.8774 45.6374 19.2294Z" fill="#FDDA00"/>
</svg>
